<svg width="78" height="78" viewBox="0 0 78 78" fill="none" xmlns="http://www.w3.org/2000/svg">
<rect width="78" height="78" fill="#00344C"/>
<path d="M44.6941 38C44.6941 41.4209 41.9209 44.1941 38.5 44.1941C35.0791 44.1941 32.3059 41.4209 32.3059 38C32.3059 34.5791 35.0791 31.8059 38.5 31.8059C41.9209 31.8059 44.6941 34.5791 44.6941 38Z" fill="#93CDF6"/>
<path d="M21.1023 40.3945C21.8137 40.8052 22.3327 41.4816 22.5453 42.275C22.9659 43.8446 23.6138 45.3365 24.4631 46.7058C24.1773 46.9098 23.8988 47.1254 23.6281 47.3525L19.6595 50.6826C18.2639 48.6094 17.2143 46.3115 16.5623 43.8782C16.3497 43.0848 16.461 42.2394 16.8717 41.5281C17.2824 40.8167 17.9588 40.2977 18.7522 40.0851C19.5456 39.8725 20.391 39.9838 21.1023 40.3945Z" fill="#93CDF6"/>
<path d="M54.9891 34.8088C54.7416 34.4861 54.5599 34.1178 54.4547 33.725C53.7043 30.9243 52.2298 28.3706 50.1796 26.3204C48.1294 24.2702 45.5757 22.7957 42.775 22.0453C41.9844 21.8303 41.3112 21.3107 40.9029 20.6003C40.4945 19.8899 40.3843 19.0467 40.5964 18.2553C40.8085 17.4639 41.3255 16.7887 42.0343 16.3777C42.7431 15.9667 43.5859 15.8533 44.3782 16.0624C48.229 17.0942 51.7404 19.1215 54.5595 21.9405C57.3785 24.7596 59.4058 28.271 60.4377 32.1218C60.5429 32.5147 60.5698 32.9244 60.5167 33.3276C60.4636 33.7309 60.3316 34.1197 60.1283 34.4719C59.9249 34.8241 59.6542 35.1329 59.3315 35.3804C59.0089 35.628 58.6406 35.8096 58.2478 35.9149C57.8549 36.0202 57.4452 36.047 57.0419 35.994C56.6387 35.9409 56.2499 35.8089 55.8977 35.6055C55.5455 35.4022 55.2367 35.1314 54.9891 34.8088Z" fill="#93CDF6"/>
<path d="M26.8204 26.3204C28.8706 24.2702 31.4243 22.7957 34.225 22.0453C35.0156 21.8303 35.6888 21.3107 36.0971 20.6003C36.5055 19.8899 36.6157 19.0467 36.4036 18.2553C36.1915 17.4639 35.6745 16.7887 34.9657 16.3777C34.2569 15.9667 33.4141 15.8533 32.6218 16.0624C28.771 17.0942 25.2595 19.1215 22.4405 21.9405C19.6215 24.7596 17.5942 28.271 16.5623 32.1218C16.3497 32.9152 16.461 33.7606 16.8717 34.4719C17.2824 35.1833 17.9588 35.7023 18.7522 35.9149C19.5456 36.1275 20.391 36.0162 21.1023 35.6055C21.8137 35.1948 22.3327 34.5184 22.5453 33.725C23.2957 30.9243 24.7702 28.3706 26.8204 26.3204Z" fill="#93CDF6"/>
<path d="M54.9891 41.1912C54.7416 41.5139 54.5599 41.8822 54.4547 42.275C54.0342 43.8446 53.3862 45.3365 52.537 46.7058C52.8227 46.9098 53.1013 47.1254 53.3719 47.3525L57.3406 50.6826C58.7361 48.6094 59.7857 46.3115 60.4377 43.8782C60.5429 43.4853 60.5698 43.0756 60.5167 42.6723C60.4636 42.2691 60.3316 41.8803 60.1283 41.5281C59.9249 41.1759 59.6542 40.8671 59.3315 40.6195C59.0089 40.372 58.6406 40.1903 58.2478 40.0851C57.8549 39.9798 57.4452 39.953 57.0419 40.0061C56.6387 40.0591 56.2499 40.1911 55.8977 40.3945C55.5455 40.5978 55.2367 40.8686 54.9891 41.1912Z" fill="#93CDF6"/>
<path d="M46.7361 59.1656V55.2607L49.7073 57.7538C48.7537 58.2948 47.7608 58.7669 46.7361 59.1656Z" fill="#93CDF6"/>
<path fill-rule="evenodd" clip-rule="evenodd" d="M30.2639 55.2607V59.1656C29.2393 58.7669 28.2464 58.2948 27.2928 57.7538L30.2639 55.2607Z" fill="#93CDF6"/>
<path d="M32.3059 38C32.3059 41.4209 35.0791 44.1941 38.5 44.1941C41.9209 44.1941 44.6941 41.4209 44.6941 38C44.6941 34.5791 41.9209 31.8059 38.5 31.8059C35.0791 31.8059 32.3059 34.5791 32.3059 38Z" fill="#93CDF6"/>
<path d="M55.8977 40.3945C55.1863 40.8052 54.6673 41.4816 54.4547 42.275C54.0342 43.8446 53.3862 45.3365 52.537 46.7058C52.8227 46.9098 53.1013 47.1254 53.3719 47.3525L57.3406 50.6826C58.7361 48.6094 59.7857 46.3115 60.4377 43.8782C60.6503 43.0848 60.539 42.2394 60.1283 41.5281C59.7176 40.8167 59.0412 40.2977 58.2478 40.0851C57.4544 39.8725 56.609 39.9838 55.8977 40.3945Z" fill="#93CDF6"/>
<path d="M22.0109 34.8088C22.2584 34.4861 22.4401 34.1178 22.5453 33.725C23.2957 30.9243 24.7702 28.3706 26.8204 26.3204C28.8706 24.2702 31.4243 22.7957 34.225 22.0453C35.0156 21.8303 35.6888 21.3107 36.0971 20.6003C36.5055 19.8899 36.6157 19.0467 36.4036 18.2553C36.1915 17.4639 35.6745 16.7887 34.9657 16.3777C34.2569 15.9667 33.4141 15.8533 32.6218 16.0624C28.771 17.0942 25.2595 19.1215 22.4405 21.9405C19.6215 24.7596 17.5942 28.271 16.5623 32.1218C16.4571 32.5147 16.4302 32.9244 16.4833 33.3276C16.5364 33.7309 16.6684 34.1197 16.8717 34.4719C17.0751 34.8241 17.3458 35.1329 17.6685 35.3804C17.9911 35.628 18.3594 35.8096 18.7522 35.9149C19.1451 36.0202 19.5548 36.047 19.9581 35.994C20.3613 35.9409 20.7501 35.8089 21.1023 35.6055C21.4545 35.4022 21.7633 35.1314 22.0109 34.8088Z" fill="#93CDF6"/>
<path d="M50.1796 26.3204C48.1294 24.2702 45.5757 22.7957 42.775 22.0453C41.9844 21.8303 41.3112 21.3107 40.9029 20.6003C40.4945 19.8899 40.3843 19.0467 40.5964 18.2553C40.8085 17.4639 41.3255 16.7887 42.0343 16.3777C42.7431 15.9667 43.5859 15.8533 44.3782 16.0624C48.229 17.0942 51.7404 19.1215 54.5595 21.9405C57.3785 24.7596 59.4058 28.271 60.4377 32.1218C60.6503 32.9152 60.539 33.7606 60.1283 34.4719C59.7176 35.1833 59.0412 35.7023 58.2478 35.9149C57.4544 36.1275 56.609 36.0162 55.8977 35.6055C55.1863 35.1948 54.6673 34.5184 54.4547 33.725C53.7043 30.9243 52.2298 28.3706 50.1796 26.3204Z" fill="#93CDF6"/>
<path d="M22.0109 41.1912C22.2584 41.5139 22.4401 41.8822 22.5453 42.275C22.9659 43.8446 23.6138 45.3365 24.4631 46.7058C24.1773 46.9098 23.8988 47.1254 23.6281 47.3525L19.6595 50.6826C18.2639 48.6094 17.2143 46.3115 16.5623 43.8782C16.4571 43.4853 16.4302 43.0756 16.4833 42.6723C16.5364 42.2691 16.6684 41.8803 16.8717 41.5281C17.0751 41.1759 17.3458 40.8671 17.6685 40.6195C17.9911 40.372 18.3594 40.1903 18.7522 40.0851C19.1451 39.9798 19.5548 39.953 19.9581 40.0061C20.3613 40.0591 20.7501 40.1911 21.1023 40.3945C21.4545 40.5978 21.7633 40.8686 22.0109 41.1912Z" fill="#93CDF6"/>
<path d="M30.2639 59.1656V55.2607L27.2928 57.7538C28.2464 58.2948 29.2393 58.7669 30.2639 59.1656Z" fill="#93CDF6"/>
<path fill-rule="evenodd" clip-rule="evenodd" d="M46.7361 55.2607V59.1656C47.7608 58.7669 48.7537 58.2948 49.7073 57.7538L46.7361 55.2607Z" fill="#93CDF6"/>
<path d="M31.904 65.2134C31.8269 65.748 31.9641 66.2801 32.2831 66.7159C32.6021 67.1518 33.0792 67.4454 33.6121 67.5335C35.2027 67.7947 36.8355 67.9353 38.5 67.9353C40.1646 67.9353 41.7973 67.7947 43.3879 67.5335C43.9208 67.4454 44.3979 67.1518 44.7169 66.7159C45.0359 66.2801 45.1731 65.748 45.096 65.2134C44.8412 63.4453 44.6989 61.6452 44.6751 59.856C44.6726 59.673 44.6714 59.4901 44.6714 59.3071V55.2607C44.6715 54.8677 44.7837 54.4829 44.9948 54.1514C45.206 53.82 45.5074 53.5557 45.8636 53.3896C46.2198 53.2235 46.6159 53.1625 47.0056 53.2138C47.3952 53.2651 47.7621 53.4265 48.0632 53.6791L55.1807 59.6512C55.492 59.9143 55.8522 60.1133 56.2406 60.2368C56.629 60.3603 57.038 60.406 57.4441 60.3712C57.8502 60.3363 58.2454 60.2216 58.6071 60.0337C58.795 59.9361 58.9718 59.8197 59.1352 59.6867C59.2638 59.5643 59.3913 59.4408 59.5177 59.3162C59.5291 59.3029 59.5405 59.2896 59.5518 59.2762C59.8138 58.9639 60.0116 58.6031 60.1338 58.2143C60.256 57.8254 60.3003 57.4163 60.2641 57.0103C60.2279 56.6044 60.1119 56.2095 59.9228 55.8485C59.7337 55.4874 59.4752 55.1672 59.1621 54.9063L52.0447 48.9342C51.8166 48.7428 51.5819 48.561 51.3412 48.389C49.4077 47.0078 47.0849 46.2587 44.694 46.2587L38.5 46.2587H32.306C29.9152 46.2587 27.5923 47.0078 25.6589 48.389C25.4181 48.561 25.1834 48.7428 24.9553 48.9342L17.8379 54.9063C17.5248 55.1672 17.2663 55.4874 17.0772 55.8485C16.8881 56.2095 16.7721 56.6044 16.7359 57.0103C16.6997 57.4163 16.744 57.8254 16.8662 58.2143C16.9884 58.6031 17.1862 58.9639 17.4482 59.2762C17.4595 59.2896 17.4709 59.303 17.4824 59.3162C17.6088 59.4408 17.7363 59.5643 17.8649 59.6867C18.0282 59.8198 18.2051 59.9361 18.3929 60.0337C18.7546 60.2216 19.1498 60.3363 19.5559 60.3712C19.962 60.406 20.371 60.3603 20.7594 60.2368C21.1478 60.1133 21.508 59.9143 21.8193 59.6512L28.9368 53.6791C29.2379 53.4265 29.6048 53.2651 29.9944 53.2138C30.3841 53.1625 30.7802 53.2235 31.1364 53.3896C31.4926 53.5557 31.794 53.82 32.0052 54.1514C32.2163 54.4829 32.3285 54.8677 32.3286 55.2607V59.3071C32.3286 59.4901 32.3274 59.6731 32.325 59.856C32.3012 61.6452 32.1589 63.4453 31.904 65.2134Z" fill="#93CDF6"/>
</svg>
